<svg xmlns="http://www.w3.org/2000/svg" width="190" height="40" fill="none">
  <path fill="#111920" d="M60.347.014 48.207 32.38h5.586l2.677-7.652h13.478l2.674 7.652h5.586L66.12.014h-5.773ZM57.994 20.25l5.216-15.3h.09l5.171 15.3H57.994ZM93.088 8.613c-3.69 0-5.999 1.721-7.245 3.35h-.09V9.247h-4.894V40h4.894V29.619h.09c1.248 1.721 3.555 3.438 7.245 3.438 5.999 0 10.477-4.614 10.477-12.222.002-7.603-4.478-12.222-10.477-12.222Zm-.925 20.551c-3.923 0-6.366-3.214-6.366-8.33 0-5.16 2.443-8.325 6.366-8.325 4.247 0 6.51 3.8 6.51 8.326 0 4.525-2.263 8.33-6.51 8.33Zm21.062-19.917h4.434v3.891h-4.434v12.54c0 2.628 1.292 2.944 4.434 2.763v3.893c-.969.225-2.037.36-3.33.36-3.871 0-5.998-1.721-5.998-6.607V13.14h-3.413V9.247h3.413V1.96h4.894v7.287Zm8.71 0h4.848V32.38h-4.848V9.247Zm5.172-6.553c0 1.487-1.23 2.693-2.747 2.693s-2.747-1.206-2.747-2.693c0-1.488 1.228-2.694 2.745-2.694 1.519 0 2.749 1.206 2.749 2.694Zm16.685 5.908c-3.645 0-5.953 1.677-7.201 3.442h-.09V.004h-4.848v32.364h4.848v-2.674h.09c1.248 1.585 3.556 3.35 7.201 3.35 6.043 0 10.524-4.613 10.524-12.222 0-7.603-4.481-12.22-10.524-12.22Zm-.856 20.539c-3.97 0-6.413-3.215-6.413-8.33 0-5.16 2.443-8.326 6.413-8.326 4.246 0 6.51 3.8 6.51 8.326 0 4.526-2.264 8.33-6.51 8.33ZM158.241.004h4.894v32.364h-4.894V.004Zm20.498 29.15c-4.292 0-6.831-3.215-6.831-7.106H190c0-8.237-3.736-13.444-11.351-13.444-7.111 0-11.591 4.71-11.591 12.222 0 7.242 4.48 12.222 11.816 12.222 6.05 0 9.561-3.35 10.756-7.74h-4.848c-.411 1.4-2.029 3.846-6.043 3.846Zm-.093-16.793c3.923 0 6.51 2.58 6.51 6.155h-13.252c0-3.575 2.818-6.155 6.742-6.155Z"/>
  <path fill="#E09600" d="M38.756 19.048v-7.62L27.13 0H11.554L0 11.429v7.619L19.378 0l19.378 19.048Z"/>
  <path fill="#E09600" d="M27.13 32.381h-5.814V7.303l17.44 17.143v7.62L27.13 20.636v11.745ZM11.627 32.381h5.813V7.303L0 24.446v7.62l11.627-11.43v11.745Z"/>
</svg>
