<svg width="1727" height="900" viewBox="0 0 1727 900" fill="none" xmlns="http://www.w3.org/2000/svg">
<rect width="1727" height="900" fill="#F5F5F5"/>
<rect width="1727" height="900" fill="white"/>
<rect width="1727" height="900" fill="url(#paint0_radial_0_1)"/>
<g style="mix-blend-mode:screen">
<path d="M828 0L1728 0.000314722L1728 900L828 0Z" fill="url(#paint1_radial_0_1)"/>
</g>
<rect width="1728" height="900" fill="url(#paint2_linear_0_1)"/>
<rect width="1728" height="900" fill="url(#paint3_radial_0_1)"/>
<g style="mix-blend-mode:overlay">
<path d="M0 900L-3.93403e-05 5.72205e-06L900 -3.36182e-05L0 900Z" fill="url(#paint4_radial_0_1)"/>
</g>
<g style="mix-blend-mode:screen">
<path d="M900 900L5.72205e-06 900L8.44025e-05 -7.29585e-05L900 900Z" fill="url(#paint5_radial_0_1)"/>
</g>
<defs>
<radialGradient id="paint0_radial_0_1" cx="0" cy="0" r="1" gradientUnits="userSpaceOnUse" gradientTransform="translate(1727 -0.000334644) rotate(180) scale(1727 691.072)">
<stop stop-color="#FFB607"/>
<stop offset="1" stop-color="white" stop-opacity="0"/>
</radialGradient>
<radialGradient id="paint1_radial_0_1" cx="0" cy="0" r="1" gradientUnits="userSpaceOnUse" gradientTransform="translate(1728 900) rotate(-90.7547) scale(911.079 1535.28)">
<stop stop-color="#B4C0FF"/>
<stop offset="1" stop-color="#DBF4BA"/>
</radialGradient>
<linearGradient id="paint2_linear_0_1" x1="864" y1="0" x2="864" y2="900" gradientUnits="userSpaceOnUse">
<stop stop-color="#FCF4E5"/>
<stop offset="1" stop-color="#FCF4E5" stop-opacity="0"/>
</linearGradient>
<radialGradient id="paint3_radial_0_1" cx="0" cy="0" r="1" gradientUnits="userSpaceOnUse" gradientTransform="translate(1539 -277) rotate(125.701) scale(1411.19 1849.66)">
<stop stop-color="#CFBCF7"/>
<stop offset="1" stop-color="white" stop-opacity="0"/>
</radialGradient>
<radialGradient id="paint4_radial_0_1" cx="0" cy="0" r="1" gradientUnits="userSpaceOnUse" gradientTransform="translate(853 59) rotate(-176.043) scale(855.038 1440.84)">
<stop stop-color="#CFBCF7"/>
<stop offset="1" stop-color="#FDDB1C"/>
</radialGradient>
<radialGradient id="paint5_radial_0_1" cx="0" cy="0" r="1" gradientUnits="userSpaceOnUse" gradientTransform="rotate(89.2453) scale(911.079 1535.28)">
<stop stop-color="#CFBCF7"/>
<stop offset="1" stop-color="#FDDB1C"/>
</radialGradient>
</defs>
</svg>
